@startuml
title 基于GitHub的实验管理平台--类图
class teachers {
    <b>id</b> （自增）
    tch_no (教师编号)
    tch_name (教师姓名)
    github_name (教师GitHub的名称)
    tch_pwd (教师密码)
    addtime(教师创建时间)
    status (教师是否禁用)
}
class stu_course {
    <b>id</b> （自增）
    course_no (课程编号)
    stu_no (学生编号)
    addtime (增加日期)
}

class students {
    <b>id</b> （自增）
    <b>course_no</b> （课程编号）
    stu_no (学生编号)
    stu_name (学生姓名)
    github_name (学生GitHub的名称)
    stu_pwd (学生密码)
    stu_class(学生班级)
    addtime(学生创建时间)
    status (学生是否禁用)

}
class courses {
    <b>id</b> （自增）
    course_no (课程编号)
    course_name (课程名称)
    status (状态)
    addtime (增加日期)
    <b>term_id</b> （学期编号）
    <b>stu_no</b> （学生编号）
    <b>tch_no</b> （教师编号）
}

class grades {
    <b>grade_id</b> （自增）
    grade_1 (分数1)
    grade_2 (分数2)
    grade_3 (分数3)
    memo (评价)
    addtime (评改日期)
    <b>test_id</b> （实验编号）
    <b>course_no</b> （课程编号）
    <b>stu_no</b> （学生编号）
}

class tests {
    <b>test_id</b> （实验编号）
    title (实验名称)
    addtime (增加时间)
    <b>course_no</b> （课程编号）
}

class terms {
    <b>term_id</b> （学期编号）
    title (学期名称)
    addtime (增加时间)
}

students "1" -- "n"  grades
tests "1" -- "n"  grades
courses "1" -- "n"  grades
stu_course "1" -- "n" students
stu_course "1" -- "n" courses
terms "1" -- "n" courses
teachers "1" -- "n" courses
courses "1" -- "n"  tests

@enduml
