@startuml
class 书目{
     书目号
}
class 图书{
    条形码
    ISBN
    书名
    作者
    总数
    预定数目
    已借出数目
    可借数目
}
class 预约{
    预约日期
    账号
    数量
    ISBN
}
class 读者{
    账号
    姓名
    密码
    已借书目
    最大可借数目
}
class 借阅记录{
    日期
    书籍价格
    书目
    读者账号
}
class 逾期记录{
    逾期天数
    读者账号
}
class 罚款细则{
   每日罚款金额
}
class 图书管理员{
    职工号
    姓名
    账号
    密码
}
class 超级管理员{
}

书目 "0..*" - "1" 图书
图书 "1"--right--"*"预约
预约 "*"-right-"1"读者
读者 "1"-up-"0..*"借阅记录
借阅记录 "0..1"-left-"1"书目
借阅记录 "1"-"0..1"逾期记录
借阅记录"*"-up-"1"图书管理员
逾期记录"*"--"0..1"罚款细则
图书管理员<|-left-超级管理员
@enduml
